General

Complete name                    : Room In Rome.2010.English{PSP.IPOD.ZUNE}DVDRIP.aaaevilacharya.m4v
Format                           : MPEG-4
Format profile                   : Base Media / Version 2
Codec ID                         : mp42
File size                        : 300 MiB
Duration                         : 1h 47mn
Overall bit rate                 : 390 Kbps
Encoded date                     : UTC 2010-12-21 05:44:09
Tagged date                      : UTC 2010-12-21 08:32:27


Video
ID                               : 1
Format                           : AVC
Format/Info                      : Advanced Video Codec
Format profile                   : Baseline@L3.0
Format settings, CABAC           : No
Format settings, ReFrames        : 1 frame
Codec ID                         : avc1
Codec ID/Info                    : Advanced Video Coding
Duration                         : 1h 47mn
Bit rate mode                    : Variable
Bit rate                         : 275 Kbps
Width                            : 480 pixels
Height                           : 208 pixels
Display aspect ratio             : 2.35:1
Frame rate mode                  : Variable
Frame rate                       : 23.931 fps
Original frame rate              : 24.000 fps
Minimum frame rate               : 0.960 fps
Maximum frame rate               : 24.000 fps
Color space                      : YUV
Chroma subsampling               : 4:2:0
Bit depth                        : 8 bits
Scan type                        : Progressive
Bits/(Pixel*Frame)               : 0.115
Stream size                      : 213 MiB (71%)
Writing library                  : x264 core 79


Audio
ID                               : 2
Format                           : AAC
Format/Info                      : Advanced Audio Codec
Format version                   : Version 4
Format profile                   : LC
Format settings, SBR             : No
Codec ID                         : 40
Duration                         : 1h 47mn
Bit rate mode                    : Variable
Bit rate                         : 110 Kbps
Maximum bit rate                 : 195 Kbps
Channel(s)                       : 2 channels
Channel positions                : Front: L R
Sampling rate                    : 32.0 KHz
Stream size                      : 84.7 MiB (28%)
Encoded date                     : UTC 2010-12-21 05:44:09
Tagged date                      : UTC 2010-12-21 08:32:27

Text #1
ID                               : 3
Format                           : Timed text
Muxing mode                      : sbtl
Codec ID                         : tx3g
Duration                         : 1h 32mn
Bit rate mode                    : Variable
Bit rate                         : 6 bps
Stream size                      : 4.16 KiB (0%)
Language                         : English
Encoded date                     : UTC 2010-12-21 05:44:09
Tagged date                      : UTC 2010-12-21 08:08:52

Text #2
ID                               : 4
Format                           : Apple text
Codec ID                         : text
Duration                         : 1h 47mn
Bit rate                         : 0
Stream size                      : 14.0 Bytes (0%)
Encoded date                     : UTC 2010-12-21 05:44:09
Tagged date                      : UTC 2010-12-21 08:32:27

SCREENSHOTS
 
http://img87.imageshack.us/img87/3811/roominrome2010frontcove.jpg 
http://img153.imageshack.us/img153/4764/roominrome2010englishps.jpg 
http://img208.imageshack.us/img208/4764/roominrome2010englishps.jpg 
http://img337.imageshack.us/img337/4764/roominrome2010englishps.jpg 
http://img80.imageshack.us/img80/4764/roominrome2010englishps.jpg
